<svg width="15" height="12" viewBox="0 0 15 12" fill="none" xmlns="http://www.w3.org/2000/svg">
<path d="M0 1.50029C0 0.672788 0.747526 0 1.66696 0H5.83435V3.00059C5.83435 3.41551 6.20681 3.75073 6.66782 3.75073H10.0017V7.02325L7.53516 9.24321C7.32158 9.43544 7.17052 9.67689 7.09759 9.93944L6.70689 11.3483C6.64699 11.5687 6.66001 11.7937 6.74336 12H1.66696C0.747526 12 0 11.3272 0 10.4997V1.50029ZM10.0017 3.00059H6.66782V0L10.0017 3.00059ZM14.3202 5.5253L14.6953 5.86286C15.1016 6.22856 15.1016 6.82165 14.6953 7.18969L13.9295 7.87888L12.0802 6.2145L12.846 5.5253C13.2523 5.1596 13.9113 5.1596 14.3202 5.5253ZM8.12381 9.77535L11.489 6.74663L13.3383 8.41102L9.97308 11.4374C9.8663 11.5335 9.73346 11.6015 9.585 11.6343L8.01962 11.9859C7.87637 12.0188 7.7279 11.9812 7.62372 11.8875C7.51953 11.7937 7.47786 11.6601 7.51432 11.5312L7.90502 10.1223C7.94148 9.99101 8.01702 9.86911 8.12381 9.773V9.77535Z" fill="white"/>
</svg>
